<svg t="1694762239862" class="icon" viewBox="0 0 1024 1024" version="1.1" xmlns="http://www.w3.org/2000/svg" p-id="902" width="16" height="16"><path d="M368.64 208.896l74.752 94.72c30.208 39.936 26.112 95.232-8.704 129.536l-21.504 24.064 8.192 12.288c16.384 24.064 34.304 46.592 53.76 67.584l7.168 7.68c22.016 22.528 47.616 43.008 77.824 63.488l7.68 5.12 22.016-22.016c35.84-35.84 91.136-39.936 130.56-10.24l95.232 75.264 2.56 2.56 4.096 4.096c40.96 37.888 40.96 102.4 1.024 142.336l-8.192 8.704-13.312 13.824-6.656 6.656-35.328 34.304c-50.688 48.64-140.288 30.208-244.736-36.352l-12.288-7.68-12.288-8.192-12.288-8.704-18.432-13.824-12.288-9.728c-2.048-1.536-4.096-3.072-6.144-5.12l-12.8-10.24-6.144-5.12L409.6 752.64l-12.8-11.264-6.656-5.632-12.8-11.776-12.8-12.288c-4.096-4.096-8.704-8.192-12.8-12.288l-12.8-12.8-12.8-12.8-12.288-12.8-12.288-12.8-5.632-6.144-11.264-12.8-11.264-12.8-5.632-6.144-10.752-12.8c-1.536-2.048-3.584-4.096-5.12-6.144l-10.24-12.8-9.728-12.288-9.216-12.288-8.704-12.288c-1.536-2.048-3.072-4.096-4.096-6.144l-8.192-12.288c-6.656-9.728-12.8-19.968-18.944-29.696l-6.656-11.776c-5.12-9.216-10.24-18.944-15.36-28.672l-5.12-11.264C121.344 367.616 117.76 305.152 153.088 266.24l2.048-2.56 6.144-7.168c21.504-24.576 41.984-44.544 60.416-59.904l5.632-4.608c44.032-34.304 108.032-26.624 141.312 16.896z m-101.376 33.28l-5.632 4.608-4.608 4.096c-14.336 12.288-30.208 28.16-47.104 48.128l-2.048 2.56-2.048 2.56-2.56 2.56-1.024 1.024-0.512 0.512-1.024 1.536c-12.8 15.36-12.288 47.616 9.728 98.304l2.56 6.144 5.12 10.24c4.096 8.192 8.704 16.384 12.8 24.576l6.656 11.264c5.12 8.704 11.264 17.92 16.896 26.624l8.192 11.776 3.584 5.12 8.704 11.776c2.56 4.096 5.632 7.68 8.192 11.264l9.216 11.776 9.728 12.288 4.608 5.632 10.24 12.288 4.608 5.632 10.752 12.288 11.264 12.288 5.12 5.632 11.264 12.288 11.776 12.288 12.288 12.288 12.8 12.288c4.096 4.096 8.192 8.192 12.288 11.776l12.288 11.264 12.8 11.264 5.632 5.12 12.288 10.752 12.288 10.752 5.632 4.608 12.288 9.728 5.632 4.608 12.288 9.216c5.632 4.608 11.776 8.704 16.896 12.288l11.264 8.192 11.264 7.68 11.776 7.68c86.016 54.784 144.896 64.512 165.376 44.544l34.304-33.28 5.632-5.632 14.336-14.848 8.704-8.704c14.848-14.848 14.848-37.376 1.024-50.176l-2.048-2.048-2.56-2.56-92.16-72.704c-13.312-9.728-31.232-9.216-44.544 2.048l-2.56 2.56-22.016 22.016c-21.504 21.504-55.296 25.088-80.384 8.192l-8.192-5.632c-33.792-22.528-62.464-46.08-88.064-71.68l-7.68-8.192c-22.016-23.552-42.496-49.152-60.928-75.776l-8.192-12.288c-16.384-24.064-13.824-56.32 5.632-78.336l21.504-24.064 2.56-2.56c12.288-12.288 13.824-31.744 3.584-45.056L317.44 247.808c-10.752-14.848-34.816-17.92-50.176-5.632z m297.984 64c48.128 0 86.016 12.8 113.152 39.424 26.624 26.624 39.424 65.024 39.424 113.152 0.512 17.408-13.312 32.256-31.232 32.768-17.408 0.512-32.256-13.312-32.768-31.232v-1.536c0-32.256-7.168-54.272-20.992-67.584-13.312-13.312-35.328-20.992-67.584-20.992-17.408 0-31.744-14.336-31.744-31.744 0-17.92 14.336-32.256 31.744-32.256z m19.456-135.168c76.8 10.752 138.24 38.912 183.808 84.48 45.568 45.568 73.216 107.008 84.48 183.808 2.56 17.408-9.728 33.792-27.136 36.352s-33.792-9.728-36.352-27.136c-9.216-64-31.232-112.64-66.048-147.456-34.816-34.816-83.968-57.344-147.456-66.048-17.408-2.56-29.696-18.432-27.136-36.352 2.56-17.92 18.432-30.208 35.84-27.648z" fill="#333333" p-id="903"></path></svg>
